<svg viewBox="0 0 28.188 12.3359" x="0" y="0" fill="none" xmlns="http://www.w3.org/2000/svg"><defs><clipPath id="clip2_1_6692" xmlns="http://www.w3.org/2000/svg"><rect width="63" height="27" fill="white" transform="translate(0.2489999999999668, 0.06299999999999883) scale(-306.291124, -9.523324)"/></clipPath></defs><g id="Color = Dark" data-node-id="I1:185;1:149" clip-path="url(#clip2_1_6692)" xmlns="http://www.w3.org/2000/svg"><path id="Vector_2" data-node-id="I1:185;1:149;1:135" d="M0.5,9.4264h5.656v-1.5855h-3.633v-7.3409h-2.023z" fill="black"/><path id="Vector_3" data-node-id="I1:185;1:149;1:136" d="M9.874,8.1904c-1.024,0 -1.598,-0.749 -1.598,-1.9975v-0.0999c0,-1.2484 0.599,-1.9725 1.598,-1.9725c1.011,0 1.598,0.7491 1.598,1.9975v0.0874c0,1.236 -0.587,1.985 -1.598,1.985zM9.861,9.5637c1.96,0 3.446,-1.3108 3.446,-3.3708v-0.0999c0,-2.0349 -1.473,-3.3458 -3.433,-3.3458c-1.96,0 -3.446,1.3358 -3.446,3.3833v0.0999c0,2.0349 1.486,3.3333 3.433,3.3333z" fill="black"/><path id="Vector_4" data-node-id="I1:185;1:149;1:137" d="M17.042,11.8359c2.148,0 3.434,-0.9863 3.446,-2.9214v-6.0175h-1.798v0.9738c-0.374,-0.6617 -1.011,-1.1236 -2.072,-1.1236c-1.623,0 -2.871,1.3109 -2.871,3.1835v0.0874c0,1.9351 1.26,3.1212 2.846,3.1212c0.961,0 1.735,-0.5743 2.097,-1.211v0.9862c0,1.0238 -0.549,1.5981 -1.648,1.5981c-0.923,0 -1.335,-0.3746 -1.448,-0.9489h-1.798c0.175,1.3484 1.137,2.2722 3.246,2.2722zM17.13,7.7784c-0.899,0 -1.536,-0.6741 -1.536,-1.7603v-0.0998c0,-1.0737 0.562,-1.7978 1.573,-1.7978c0.987,0 1.573,0.6741 1.573,1.7853v0.0874c0,1.1111 -0.661,1.7852 -1.61,1.7852z" fill="black"/><path id="Vector_5" data-node-id="I1:185;1:149;1:138" d="M24.755,8.1904c-1.024,0 -1.598,-0.749 -1.598,-1.9975v-0.0999c0,-1.2484 0.599,-1.9725 1.598,-1.9725c1.011,0 1.598,0.7491 1.598,1.9975v0.0874c0,1.236 -0.587,1.985 -1.598,1.985zM24.742,9.5637c1.96,0 3.446,-1.3108 3.446,-3.3708v-0.0999c0,-2.0349 -1.473,-3.3458 -3.433,-3.3458c-1.96,0 -3.446,1.3358 -3.446,3.3833v0.0999c0,2.0349 1.486,3.3333 3.433,3.3333z" fill="black"/></g></svg>